inDegrees=no
num_controls=7
num_derivatives=13
num_iterations=65
num_multipliers=7
num_parameters=0
num_slacks=7
num_states=26
objective=0.312895
objective_accelerations=0.000898
objective_balance=0.001629
objective_effort=0.004946
objective_height=0.299782
objective_ligament=0.005639
solver_duration=696.357364
status=Solve_Succeeded
success=true
DataType=double
version=3
OpenSimVersion=4.5
endheader
time	/jointset/ground_pelvis/pelvis_tilt/value	/jointset/ground_pelvis/pelvis_tx/value	/jointset/ground_pelvis/pelvis_ty/value	/jointset/hip_r/hip_flexion_r/value	/jointset/hip_r/hip_adduction_r/value	/jointset/hip_r/hip_rotation_r/value	/jointset/back/lumbar_extension/value	/jointset/patellofemoral_r/patellar_flexion_r/value	/jointset/knee_r/knee_flexion_r/value	/jointset/knee_r/knee_adduction_r/value	/jointset/knee_r/knee_rotation_r/value	/jointset/ankle_r/ankle_angle_r/value	/jointset/subtalar_r/subtalar_angle_r/value	/jointset/ground_pelvis/pelvis_tilt/speed	/jointset/ground_pelvis/pelvis_tx/speed	/jointset/ground_pelvis/pelvis_ty/speed	/jointset/hip_r/hip_flexion_r/speed	/jointset/hip_r/hip_adduction_r/speed	/jointset/hip_r/hip_rotation_r/speed	/jointset/back/lumbar_extension/speed	/jointset/patellofemoral_r/patellar_flexion_r/speed	/jointset/knee_r/knee_flexion_r/speed	/jointset/knee_r/knee_adduction_r/speed	/jointset/knee_r/knee_rotation_r/speed	/jointset/ankle_r/ankle_angle_r/speed	/jointset/subtalar_r/subtalar_angle_r/speed	/forceset/tau_hip_flexion_r	/forceset/tau_hip_adduction_r	/forceset/tau_hip_rotation_r	/forceset/tau_knee_flexion_r	/forceset/tau_ankle_angle_r	/forceset/tau_subtalar_angle_r	/forceset/tau_lumbar_extension	lambda_cid13_p0	lambda_cid14_p0	lambda_cid14_p1	lambda_cid14_p2	lambda_cid14_p3	lambda_cid14_p4	lambda_cid14_p5	/jointset/ground_pelvis/pelvis_tilt/accel	/jointset/ground_pelvis/pelvis_tx/accel	/jointset/ground_pelvis/pelvis_ty/accel	/jointset/hip_r/hip_flexion_r/accel	/jointset/hip_r/hip_adduction_r/accel	/jointset/hip_r/hip_rotation_r/accel	/jointset/back/lumbar_extension/accel	/jointset/patellofemoral_r/patellar_flexion_r/accel	/jointset/knee_r/knee_flexion_r/accel	/jointset/knee_r/knee_adduction_r/accel	/jointset/knee_r/knee_rotation_r/accel	/jointset/ankle_r/ankle_angle_r/accel	/jointset/subtalar_r/subtalar_angle_r/accel	gamma_cid13_p0	gamma_cid14_p0	gamma_cid14_p1	gamma_cid14_p2	gamma_cid14_p3	gamma_cid14_p4	gamma_cid14_p5
0.5	0.02128962511138499	0.1423855582146784	0.9370521878845902	0.1619472490827906	-0.07852624206338467	-0.01227749864908492	-0.3232574275246171	0.2397746050370561	0.2397746050370563	-0.1599793224304856	-0.1644962014043289	0.1213177057889915	0.2637030872932294	0.04679117064405346	0.05051465238404815	0.002150930917941553	-0.1017750305204223	-0.008775468769625847	-0.009184043561822388	-0.08321803709760875	0.02316010536564875	0.02316010536564862	0.01070138626414517	-0.005756903003319731	0.08139239111579251	0.02737876664423365	0.003352688167555585	0.04957377719881628	0.03263152048368437	-0.1147044399219684	-0.009057601579323902	-0.03611686522160396	0.07683918535952487	-28.11174554775064	-53.24342055798544	-27.99628316690249	8.298541006010144	6.503120607928244	-662.871564207024	30.70991864423121	0.1108454640301817	-0.06969146612836773	0.00625316787677898	-0.05192633874103399	0.01075572918692998	0.01347075478172093	0.08300648683657222	-0.02772196236520136	-0.02772196236520119	-0.01476954694457719	-0.0009569177767465784	-0.09158378476082571	-0.02577175233588955	-6.71698006557563e-11	-2.133639832806059e-10	-9.403275170864766e-10	3.127823494762596e-10	1.670425959478381e-10	-2.823789963677866e-10	-1.222391064925368e-09
0.51	0.02176301566574667	0.1428871497133955	0.9370740050877828	0.1609270552630589	-0.07861339280270113	-0.01236875524505548	-0.3240852669927732	0.2400047926001049	0.2400047926001047	-0.1598731910798079	-0.164553749974715	0.1221269476905773	0.2639756244868804	0.04788300418382807	0.04979666810573531	0.002212457389635445	-0.1022527757937426	-0.008648334570967916	-0.009078227683304749	-0.08233285277321882	0.02287118370393024	0.02287118370393013	0.01051099460899872	-0.00574385643959296	0.08044449858667682	0.0271315823130476	0.002915981193752378	0.04982416291158917	0.03235305940140405	-0.1134452596007662	-0.01120992292781767	-0.03641185640675395	0.07725305242115771	-28.11544822327851	-53.96060080729053	-28.11918472025883	8.168745658074043	6.832831901663007	-662.9047776367948	30.52361471227561	0.1077618743526188	-0.07389876184234503	0.006094481054040264	-0.04405500191689087	0.01464399978245373	0.007494265106533497	0.0938249692985192	-0.03041078694884167	-0.03041078694876725	-0.02325742714642885	0.003778706174954894	-0.09811556463423735	-0.02375534611986159	-5.771186864075241e-11	-2.088196560942253e-10	-1.113836415217126e-09	4.866525118158704e-10	1.8498887195888e-10	-2.810504436244931e-10	-1.51366138518039e-09
0.52	0.02224720647058638	0.1433813519986976	0.9370964359745403	0.1599024127145361	-0.07869908185311555	-0.01245928223009693	-0.3249037445048736	0.2402319042427618	0.2402319042427611	-0.159769380336151	-0.1646108994269183	0.1229263659513425	0.2642457771226975	0.04895122073966305	0.04903680970103833	0.002273667630862966	-0.1026647762786374	-0.008483130989220027	-0.0090381213759972	-0.08134564588649629	0.02254492128726665	0.02254492128726662	0.01023726485998118	-0.00567707936676358	0.07942766295166909	0.02690185507746564	0.002479274219949192	0.05007454862436206	0.03207459831912376	-0.1121860792795669	-0.01336224427631144	-0.03670684759190393	0.07766691948278692	-28.11910833066834	-54.67833235048015	-28.24211073331705	8.038871885515395	7.167940835592586	-662.943334555962	30.33804128025018	0.1061220672422539	-0.07806629140519696	0.006189921783504723	-0.03877738105593962	0.01836960580492328	0.0003288405397028141	0.1034109993030919	-0.03519011335405782	-0.03519011335433	-0.03143716571879597	0.009789184043772849	-0.1053724059392512	-0.02228033321506793	-5.152945263994222e-11	-2.115554086457899e-10	-1.313158258462687e-09	6.658392300294066e-10	2.0631634587878e-10	-2.820020959245838e-10	-1.832174590202406e-09
0.53	0.02274196873927383	0.1438677562217469	0.9371194785539086	0.1588739598938761	-0.07878293943931025	-0.01254968118199248	-0.3257118733109594	0.2404555811690508	0.2404555811690504	-0.1596686944828292	-0.1646671635971383	0.1237152861535051	0.2645137115209822	0.04999768765836685	0.04823802503243101	0.002334896456029813	-0.1030162947447965	-0.00828359999656232	-0.009045744193301522	-0.08026606333095107	0.02218601440345977	0.02218601440345895	0.009890099263892629	-0.005572833296836737	0.078346372643222	0.02668645657882967	0.002132469586598045	0.05024599324012726	0.03183560932758309	-0.1110942279192778	-0.01530119379838487	-0.03692722119017267	0.07801712747936473	-28.12271834543913	-55.32024004764608	-28.33493487187826	7.921996014727015	7.44617506407463	-662.9744921205946	30.20935186986872	0.1033771857462182	-0.08168599254616737	0.006096538364558968	-0.03191513855780934	0.02146288553331322	-0.001918991901600851	0.112339683634756	-0.03690840129678719	-0.03690840129673646	-0.03782731391325301	0.01118065200379908	-0.1110080345355672	-0.02095493443865181	-5.20382167534363e-11	-2.239334449517163e-10	-1.484273935178311e-09	8.022713713572653e-10	2.27394897913611e-10	-2.742338457794476e-10	-2.09095753113611e-09
0.54	0.02324708931346067	0.1443459923105186	0.937143134856625	0.1578422766767221	-0.07886465810767092	-0.01264027859186829	-0.3265087847314987	0.2406755355414211	0.240675535541421	-0.1595717744969402	-0.1647222976399517	0.1244930933143357	0.2647795348690304	0.05102288183954172	0.04740318284551537	0.002396412300447821	-0.1033108555774323	-0.008055347422419855	-0.009077812972049879	-0.07910216877724693	0.02180041050354151	0.02180041050354123	0.009484091373429312	-0.005451053885445908	0.0772050546852507	0.02647964503016209	0.001785664953246919	0.05041743785589248	0.03159662033604245	-0.1100023765589886	-0.01724014332045829	-0.03714759478844142	0.07836733547594255	-28.12627580866945	-55.96276526741008	-28.4277378431214	7.804969083027897	7.730413397911203	-663.0120133121153	30.08124296779248	0.1018675197364698	-0.08527779506686158	0.006247325633736495	-0.02738585435129408	0.02411392210187496	-0.004560351749104165	0.1202733989348721	-0.04052951657633896	-0.0405295165763391	-0.04320562459375023	0.01329585233633306	-0.1173779358439914	-0.02056294322138825	-5.994998865296927e-11	-2.469795398794898e-10	-1.624182789350175e-09	8.914005765562889e-10	2.481980470117702e-10	-2.568180439927838e-10	-2.283655924567851e-09
0.55	0.02376236744151822	0.1448157105198867	0.9371674094080803	0.1568079060914314	-0.07894396265413856	-0.01273122769466915	-0.3272936622425657	0.24089152011143	0.2408915201114294	-0.159479172477476	-0.1647762122891999	0.1252592025649628	0.265043322844434	0.05203007250574319	0.04653551493519501	0.002458690051878762	-0.1035560196986201	-0.007802272315908533	-0.009106492033684578	-0.07786157197968885	0.02139415728778315	0.02139415728778324	0.009030839166512946	-0.005337762992471349	0.07600831371797628	0.02627794891948306	0.001514802514379918	0.05052025277344881	0.03139269913252278	-0.1090578154104726	-0.01898604351679646	-0.03730164077538439	0.07866450787206677	-28.12977924483619	-56.53664175653999	-28.49363545557728	7.699553399283991	7.961985475926513	-663.0420748767951	30.0033196692385	0.09974412548109643	-0.08825285104248412	0.006246759624276478	-0.02199545643110829	0.02639785763186781	-0.00119418886241137	0.1277170386337849	-0.04102514279078372	-0.04102514279069767	-0.04720611498015481	0.009462811615700627	-0.122094395791492	-0.0199732623985171	-6.425689223605929e-11	-2.613373706503155e-10	-1.735866266056573e-09	9.674554127442886e-10	2.6422347392586e-10	-2.398689974193667e-10	-2.440353651335332e-09
0.5600000000000001	0.0242876373333216	0.1452766037377461	0.9371923124889953	0.1557713011118432	-0.07902063773899984	-0.01282229808918471	-0.3280657809419635	0.2411033717655383	0.2411033717655371	-0.1593912671993289	-0.1648291706087507	0.1260130899621928	0.2653050937952494	0.05302123458870889	0.04563818454376021	0.002522118192369657	-0.1037577344369516	-0.007529455101153507	-0.009102071314989642	-0.07655040644343017	0.0209738273234165	0.02097382732341677	0.008544743110015962	-0.005259787945989455	0.07476068400580785	0.02607624011250977	0.001243940075512937	0.05062306769100514	0.03118877792900314	-0.1081132542619588	-0.02073194371313463	-0.03745568676232736	0.07896168026819192	-28.13323444740466	-57.11118366896986	-28.55948765868451	7.593945521426458	8.200073716462649	-663.0792095083314	29.92589072531971	0.09866180308931254	-0.09121029128975075	0.006477403445727009	-0.0186959777800623	0.02806234375061614	0.002059604316821138	0.1343871466750022	-0.04334486629802718	-0.04334486629820924	-0.04977439450987429	0.006232683037799877	-0.1275556848229021	-0.02056548248024184	-6.423795383941791e-11	-2.652692844328041e-10	-1.813679289804414e-09	1.02782100611906e-09	2.745156342190667e-10	-2.234800571018459e-10	-2.553850578105704e-09
